<?xml version="1.0" encoding="utf-8" standalone="no"?>
<!DOCTYPE svg PUBLIC "-//W3C//DTD SVG 1.1//EN"
  "http://www.w3.org/Graphics/SVG/1.1/DTD/svg11.dtd">
<svg xmlns:xlink="http://www.w3.org/1999/xlink" width="416.71875pt" height="405.562375pt" viewBox="0 0 416.71875 405.562375" xmlns="http://www.w3.org/2000/svg" version="1.1">
 <metadata>
  <rdf:RDF xmlns:dc="http://purl.org/dc/elements/1.1/" xmlns:cc="http://creativecommons.org/ns#" xmlns:rdf="http://www.w3.org/1999/02/22-rdf-syntax-ns#">
   <cc:Work>
    <dc:type rdf:resource="http://purl.org/dc/dcmitype/StillImage"/>
    <dc:date>2026-10-05T13:49:06.562587</dc:date>
    <dc:format>image/svg+xml</dc:format>
    <dc:creator>
     <cc:Agent>
      <dc:title>Matplotlib v3.9.4, https://matplotlib.org/</dc:title>
     </cc:Agent>
    </dc:creator>
   </cc:Work>
  </rdf:RDF>
 </metadata>
 <defs>
  <style type="text/css">*{stroke-linejoin: round; stroke-linecap: butt}</style>
 </defs>
 <g id="figure_1">
  <g id="patch_1">
   <path d="M 0 405.562375 
L 416.71875 405.562375 
L 416.71875 0 
L 0 0 
z
" style="fill: #ffffff"/>
  </g>
  <g id="axes_1">
   <g id="patch_2">
    <path d="M 35.559375 288.430125 
L 392.679375 288.430125 
L 392.679375 22.318125 
L 35.559375 22.318125 
z
" style="fill: #ffffff"/>
   </g>
   <g id="matplotlib.axis_1">
    <g id="xtick_1">
     <g id="line2d_1">
      <defs>
       <path id="mf9d430108c" d="M 0 0 
L 0 3.5 
" style="stroke: #000000; stroke-width: 0.8"/>
      </defs>
      <g>
       <use xlink:href="#mf9d430108c" x="35.559375" y="288.430125" style="stroke: #000000; stroke-width: 0.8"/>
      </g>
     </g>
     <g id="text_1">
      <!-- 0 -->
      <g transform="translate(32.378125 303.028562) scale(0.1 -0.1)">
       <defs>
        <path id="DejaVuSans-30" d="M 2034 4250 
Q 1547 4250 1301 3770 
Q 1056 3291 1056 2328 
Q 1056 1369 1301 889 
Q 1547 409 2034 409 
Q 2525 409 2770 889 
Q 3016 1369 3016 2328 
Q 3016 3291 2770 3770 
Q 2525 4250 2034 4250 
z
M 2034 4750 
Q 2819 4750 3233 4129 
Q 3647 3509 3647 2328 
Q 3647 1150 3233 529 
Q 2819 -91 2034 -91 
Q 1250 -91 836 529 
Q 422 1150 422 2328 
Q 422 3509 836 4129 
Q 1250 4750 2034 4750 
z
" transform="scale(0.015625)"/>
       </defs>
       <use xlink:href="#DejaVuSans-30"/>
      </g>
     </g>
    </g>
    <g id="xtick_2">
     <g id="line2d_2">
      <g>
       <use xlink:href="#mf9d430108c" x="106.494686" y="288.430125" style="stroke: #000000; stroke-width: 0.8"/>
      </g>
     </g>
     <g id="text_2">
      <!-- 1000 -->
      <g transform="translate(93.769686 303.028562) scale(0.1 -0.1)">
       <defs>
        <path id="DejaVuSans-31" d="M 794 531 
L 1825 531 
L 1825 4091 
L 703 3866 
L 703 4441 
L 1819 4666 
L 2450 4666 
L 2450 531 
L 3481 531 
L 3481 0 
L 794 0 
L 794 531 
z
" transform="scale(0.015625)"/>
       </defs>
       <use xlink:href="#DejaVuSans-31"/>
       <use xlink:href="#DejaVuSans-30" x="63.623047"/>
       <use xlink:href="#DejaVuSans-30" x="127.246094"/>
       <use xlink:href="#DejaVuSans-30" x="190.869141"/>
      </g>
     </g>
    </g>
    <g id="xtick_3">
     <g id="line2d_3">
      <g>
       <use xlink:href="#mf9d430108c" x="177.429997" y="288.430125" style="stroke: #000000; stroke-width: 0.8"/>
      </g>
     </g>
     <g id="text_3">
      <!-- 2000 -->
      <g transform="translate(164.704997 303.028562) scale(0.1 -0.1)">
       <defs>
        <path id="DejaVuSans-32" d="M 1228 531 
L 3431 531 
L 3431 0 
L 469 0 
L 469 531 
Q 828 903 1448 1529 
Q 2069 2156 2228 2338 
Q 2531 2678 2651 2914 
Q 2772 3150 2772 3378 
Q 2772 3750 2511 3984 
Q 2250 4219 1831 4219 
Q 1534 4219 1204 4116 
Q 875 4013 500 3803 
L 500 4441 
Q 881 4594 1212 4672 
Q 1544 4750 1819 4750 
Q 2544 4750 2975 4387 
Q 3406 4025 3406 3419 
Q 3406 3131 3298 2873 
Q 3191 2616 2906 2266 
Q 2828 2175 2409 1742 
Q 1991 1309 1228 531 
z
" transform="scale(0.015625)"/>
       </defs>
       <use xlink:href="#DejaVuSans-32"/>
       <use xlink:href="#DejaVuSans-30" x="63.623047"/>
       <use xlink:href="#DejaVuSans-30" x="127.246094"/>
       <use xlink:href="#DejaVuSans-30" x="190.869141"/>
      </g>
     </g>
    </g>
    <g id="xtick_4">
     <g id="line2d_4">
      <g>
       <use xlink:href="#mf9d430108c" x="248.365308" y="288.430125" style="stroke: #000000; stroke-width: 0.8"/>
      </g>
     </g>
     <g id="text_4">
      <!-- 3000 -->
      <g transform="translate(235.640308 303.028562) scale(0.1 -0.1)">
       <defs>
        <path id="DejaVuSans-33" d="M 2597 2516 
Q 3050 2419 3304 2112 
Q 3559 1806 3559 1356 
Q 3559 666 3084 287 
Q 2609 -91 1734 -91 
Q 1441 -91 1130 -33 
Q 819 25 488 141 
L 488 750 
Q 750 597 1062 519 
Q 1375 441 1716 441 
Q 2309 441 2620 675 
Q 2931 909 2931 1356 
Q 2931 1769 2642 2001 
Q 2353 2234 1838 2234 
L 1294 2234 
L 1294 2753 
L 1863 2753 
Q 2328 2753 2575 2939 
Q 2822 3125 2822 3475 
Q 2822 3834 2567 4026 
Q 2313 4219 1838 4219 
Q 1578 4219 1281 4162 
Q 984 4106 628 3988 
L 628 4550 
Q 988 4650 1302 4700 
Q 1616 4750 1894 4750 
Q 2613 4750 3031 4423 
Q 3450 4097 3450 3541 
Q 3450 3153 3228 2886 
Q 3006 2619 2597 2516 
z
" transform="scale(0.015625)"/>
       </defs>
       <use xlink:href="#DejaVuSans-33"/>
       <use xlink:href="#DejaVuSans-30" x="63.623047"/>
       <use xlink:href="#DejaVuSans-30" x="127.246094"/>
       <use xlink:href="#DejaVuSans-30" x="190.869141"/>
      </g>
     </g>
    </g>
    <g id="xtick_5">
     <g id="line2d_5">
      <g>
       <use xlink:href="#mf9d430108c" x="319.300619" y="288.430125" style="stroke: #000000; stroke-width: 0.8"/>
      </g>
     </g>
     <g id="text_5">
      <!-- 4000 -->
      <g transform="translate(306.575619 303.028562) scale(0.1 -0.1)">
       <defs>
        <path id="DejaVuSans-34" d="M 2419 4116 
L 825 1625 
L 2419 1625 
L 2419 4116 
z
M 2253 4666 
L 3047 4666 
L 3047 1625 
L 3713 1625 
L 3713 1100 
L 3047 1100 
L 3047 0 
L 2419 0 
L 2419 1100 
L 313 1100 
L 313 1709 
L 2253 4666 
z
" transform="scale(0.015625)"/>
       </defs>
       <use xlink:href="#DejaVuSans-34"/>
       <use xlink:href="#DejaVuSans-30" x="63.623047"/>
       <use xlink:href="#DejaVuSans-30" x="127.246094"/>
       <use xlink:href="#DejaVuSans-30" x="190.869141"/>
      </g>
     </g>
    </g>
    <g id="xtick_6">
     <g id="line2d_6">
      <g>
       <use xlink:href="#mf9d430108c" x="390.23593" y="288.430125" style="stroke: #000000; stroke-width: 0.8"/>
      </g>
     </g>
     <g id="text_6">
      <!-- 5000 -->
      <g transform="translate(377.51093 303.028562) scale(0.1 -0.1)">
       <defs>
        <path id="DejaVuSans-35" d="M 691 4666 
L 3169 4666 
L 3169 4134 
L 1269 4134 
L 1269 2991 
Q 1406 3038 1543 3061 
Q 1681 3084 1819 3084 
Q 2600 3084 3056 2656 
Q 3513 2228 3513 1497 
Q 3513 744 3044 326 
Q 2575 -91 1722 -91 
Q 1428 -91 1123 -41 
Q 819 9 494 109 
L 494 744 
Q 775 591 1075 516 
Q 1375 441 1709 441 
Q 2250 441 2565 725 
Q 2881 1009 2881 1497 
Q 2881 1984 2565 2268 
Q 2250 2553 1709 2553 
Q 1456 2553 1204 2497 
Q 953 2441 691 2322 
L 691 4666 
z
" transform="scale(0.015625)"/>
       </defs>
       <use xlink:href="#DejaVuSans-35"/>
       <use xlink:href="#DejaVuSans-30" x="63.623047"/>
       <use xlink:href="#DejaVuSans-30" x="127.246094"/>
       <use xlink:href="#DejaVuSans-30" x="190.869141"/>
      </g>
     </g>
    </g>
    <g id="text_7">
     <!-- Bandwidth (MB/s) -->
     <g transform="translate(169.976406 316.706687) scale(0.1 -0.1)">
      <defs>
       <path id="DejaVuSans-42" d="M 1259 2228 
L 1259 519 
L 2272 519 
Q 2781 519 3026 730 
Q 3272 941 3272 1375 
Q 3272 1813 3026 2020 
Q 2781 2228 2272 2228 
L 1259 2228 
z
M 1259 4147 
L 1259 2741 
L 2194 2741 
Q 2656 2741 2882 2914 
Q 3109 3088 3109 3444 
Q 3109 3797 2882 3972 
Q 2656 4147 2194 4147 
L 1259 4147 
z
M 628 4666 
L 2241 4666 
Q 2963 4666 3353 4366 
Q 3744 4066 3744 3513 
Q 3744 3084 3544 2831 
Q 3344 2578 2956 2516 
Q 3422 2416 3680 2098 
Q 3938 1781 3938 1306 
Q 3938 681 3513 340 
Q 3088 0 2303 0 
L 628 0 
L 628 4666 
z
" transform="scale(0.015625)"/>
       <path id="DejaVuSans-61" d="M 2194 1759 
Q 1497 1759 1228 1600 
Q 959 1441 959 1056 
Q 959 750 1161 570 
Q 1363 391 1709 391 
Q 2188 391 2477 730 
Q 2766 1069 2766 1631 
L 2766 1759 
L 2194 1759 
z
M 3341 1997 
L 3341 0 
L 2766 0 
L 2766 531 
Q 2569 213 2275 61 
Q 1981 -91 1556 -91 
Q 1019 -91 701 211 
Q 384 513 384 1019 
Q 384 1609 779 1909 
Q 1175 2209 1959 2209 
L 2766 2209 
L 2766 2266 
Q 2766 2663 2505 2880 
Q 2244 3097 1772 3097 
Q 1472 3097 1187 3025 
Q 903 2953 641 2809 
L 641 3341 
Q 956 3463 1253 3523 
Q 1550 3584 1831 3584 
Q 2591 3584 2966 3190 
Q 3341 2797 3341 1997 
z
" transform="scale(0.015625)"/>
       <path id="DejaVuSans-6e" d="M 3513 2113 
L 3513 0 
L 2938 0 
L 2938 2094 
Q 2938 2591 2744 2837 
Q 2550 3084 2163 3084 
Q 1697 3084 1428 2787 
Q 1159 2491 1159 1978 
L 1159 0 
L 581 0 
L 581 3500 
L 1159 3500 
L 1159 2956 
Q 1366 3272 1645 3428 
Q 1925 3584 2291 3584 
Q 2894 3584 3203 3211 
Q 3513 2838 3513 2113 
z
" transform="scale(0.015625)"/>
       <path id="DejaVuSans-64" d="M 2906 2969 
L 2906 4863 
L 3481 4863 
L 3481 0 
L 2906 0 
L 2906 525 
Q 2725 213 2448 61 
Q 2172 -91 1784 -91 
Q 1150 -91 751 415 
Q 353 922 353 1747 
Q 353 2572 751 3078 
Q 1150 3584 1784 3584 
Q 2172 3584 2448 3432 
Q 2725 3281 2906 2969 
z
M 947 1747 
Q 947 1113 1208 752 
Q 1469 391 1925 391 
Q 2381 391 2643 752 
Q 2906 1113 2906 1747 
Q 2906 2381 2643 2742 
Q 2381 3103 1925 3103 
Q 1469 3103 1208 2742 
Q 947 2381 947 1747 
z
" transform="scale(0.015625)"/>
       <path id="DejaVuSans-77" d="M 269 3500 
L 844 3500 
L 1563 769 
L 2278 3500 
L 2956 3500 
L 3675 769 
L 4391 3500 
L 4966 3500 
L 4050 0 
L 3372 0 
L 2619 2869 
L 1863 0 
L 1184 0 
L 269 3500 
z
" transform="scale(0.015625)"/>
       <path id="DejaVuSans-69" d="M 603 3500 
L 1178 3500 
L 1178 0 
L 603 0 
L 603 3500 
z
M 603 4863 
L 1178 4863 
L 1178 4134 
L 603 4134 
L 603 4863 
z
" transform="scale(0.015625)"/>
       <path id="DejaVuSans-74" d="M 1172 4494 
L 1172 3500 
L 2356 3500 
L 2356 3053 
L 1172 3053 
L 1172 1153 
Q 1172 725 1289 603 
Q 1406 481 1766 481 
L 2356 481 
L 2356 0 
L 1766 0 
Q 1100 0 847 248 
Q 594 497 594 1153 
L 594 3053 
L 172 3053 
L 172 3500 
L 594 3500 
L 594 4494 
L 1172 4494 
z
" transform="scale(0.015625)"/>
       <path id="DejaVuSans-68" d="M 3513 2113 
L 3513 0 
L 2938 0 
L 2938 2094 
Q 2938 2591 2744 2837 
Q 2550 3084 2163 3084 
Q 1697 3084 1428 2787 
Q 1159 2491 1159 1978 
L 1159 0 
L 581 0 
L 581 4863 
L 1159 4863 
L 1159 2956 
Q 1366 3272 1645 3428 
Q 1925 3584 2291 3584 
Q 2894 3584 3203 3211 
Q 3513 2838 3513 2113 
z
" transform="scale(0.015625)"/>
       <path id="DejaVuSans-20" transform="scale(0.015625)"/>
       <path id="DejaVuSans-28" d="M 1984 4856 
Q 1566 4138 1362 3434 
Q 1159 2731 1159 2009 
Q 1159 1288 1364 580 
Q 1569 -128 1984 -844 
L 1484 -844 
Q 1016 -109 783 600 
Q 550 1309 550 2009 
Q 550 2706 781 3412 
Q 1013 4119 1484 4856 
L 1984 4856 
z
" transform="scale(0.015625)"/>
       <path id="DejaVuSans-4d" d="M 628 4666 
L 1569 4666 
L 2759 1491 
L 3956 4666 
L 4897 4666 
L 4897 0 
L 4281 0 
L 4281 4097 
L 3078 897 
L 2444 897 
L 1241 4097 
L 1241 0 
L 628 0 
L 628 4666 
z
" transform="scale(0.015625)"/>
       <path id="DejaVuSans-2f" d="M 1625 4666 
L 2156 4666 
L 531 -594 
L 0 -594 
L 1625 4666 
z
" transform="scale(0.015625)"/>
       <path id="DejaVuSans-73" d="M 2834 3397 
L 2834 2853 
Q 2591 2978 2328 3040 
Q 2066 3103 1784 3103 
Q 1356 3103 1142 2972 
Q 928 2841 928 2578 
Q 928 2378 1081 2264 
Q 1234 2150 1697 2047 
L 1894 2003 
Q 2506 1872 2764 1633 
Q 3022 1394 3022 966 
Q 3022 478 2636 193 
Q 2250 -91 1575 -91 
Q 1294 -91 989 -36 
Q 684 19 347 128 
L 347 722 
Q 666 556 975 473 
Q 1284 391 1588 391 
Q 1994 391 2212 530 
Q 2431 669 2431 922 
Q 2431 1156 2273 1281 
Q 2116 1406 1581 1522 
L 1381 1569 
Q 847 1681 609 1914 
Q 372 2147 372 2553 
Q 372 3047 722 3315 
Q 1072 3584 1716 3584 
Q 2034 3584 2315 3537 
Q 2597 3491 2834 3397 
z
" transform="scale(0.015625)"/>
       <path id="DejaVuSans-29" d="M 513 4856 
L 1013 4856 
Q 1481 4119 1714 3412 
Q 1947 2706 1947 2009 
Q 1947 1309 1714 600 
Q 1481 -109 1013 -844 
L 513 -844 
Q 928 -128 1133 580 
Q 1338 1288 1338 2009 
Q 1338 2731 1133 3434 
Q 928 4138 513 4856 
z
" transform="scale(0.015625)"/>
      </defs>
      <use xlink:href="#DejaVuSans-42"/>
      <use xlink:href="#DejaVuSans-61" x="68.603516"/>
      <use xlink:href="#DejaVuSans-6e" x="129.882812"/>
      <use xlink:href="#DejaVuSans-64" x="193.261719"/>
      <use xlink:href="#DejaVuSans-77" x="256.738281"/>
      <use xlink:href="#DejaVuSans-69" x="338.525391"/>
      <use xlink:href="#DejaVuSans-64" x="366.308594"/>
      <use xlink:href="#DejaVuSans-74" x="429.785156"/>
      <use xlink:href="#DejaVuSans-68" x="468.994141"/>
      <use xlink:href="#DejaVuSans-20" x="532.373047"/>
      <use xlink:href="#DejaVuSans-28" x="564.160156"/>
      <use xlink:href="#DejaVuSans-4d" x="603.173828"/>
      <use xlink:href="#DejaVuSans-42" x="689.453125"/>
      <use xlink:href="#DejaVuSans-2f" x="758.056641"/>
      <use xlink:href="#DejaVuSans-73" x="791.748047"/>
      <use xlink:href="#DejaVuSans-29" x="843.847656"/>
     </g>
    </g>
   </g>
   <g id="matplotlib.axis_2">
    <g id="ytick_1">
     <g id="line2d_7">
      <defs>
       <path id="m195e8076c6" d="M 0 0 
L -3.5 0 
" style="stroke: #000000; stroke-width: 0.8"/>
      </defs>
      <g>
       <use xlink:href="#m195e8076c6" x="35.559375" y="288.430125" style="stroke: #000000; stroke-width: 0.8"/>
      </g>
     </g>
     <g id="text_8">
      <!-- 0 -->
      <g transform="translate(22.196875 292.229344) scale(0.1 -0.1)">
       <use xlink:href="#DejaVuSans-30"/>
      </g>
     </g>
    </g>
    <g id="ytick_2">
     <g id="line2d_8">
      <g>
       <use xlink:href="#m195e8076c6" x="35.559375" y="230.72472" style="stroke: #000000; stroke-width: 0.8"/>
      </g>
     </g>
     <g id="text_9">
      <!-- 2 -->
      <g transform="translate(22.196875 234.523939) scale(0.1 -0.1)">
       <use xlink:href="#DejaVuSans-32"/>
      </g>
     </g>
    </g>
    <g id="ytick_3">
     <g id="line2d_9">
      <g>
       <use xlink:href="#m195e8076c6" x="35.559375" y="173.019315" style="stroke: #000000; stroke-width: 0.8"/>
      </g>
     </g>
     <g id="text_10">
      <!-- 4 -->
      <g transform="translate(22.196875 176.818534) scale(0.1 -0.1)">
       <use xlink:href="#DejaVuSans-34"/>
      </g>
     </g>
    </g>
    <g id="ytick_4">
     <g id="line2d_10">
      <g>
       <use xlink:href="#m195e8076c6" x="35.559375" y="115.313911" style="stroke: #000000; stroke-width: 0.8"/>
      </g>
     </g>
     <g id="text_11">
      <!-- 6 -->
      <g transform="translate(22.196875 119.113129) scale(0.1 -0.1)">
       <defs>
        <path id="DejaVuSans-36" d="M 2113 2584 
Q 1688 2584 1439 2293 
Q 1191 2003 1191 1497 
Q 1191 994 1439 701 
Q 1688 409 2113 409 
Q 2538 409 2786 701 
Q 3034 994 3034 1497 
Q 3034 2003 2786 2293 
Q 2538 2584 2113 2584 
z
M 3366 4563 
L 3366 3988 
Q 3128 4100 2886 4159 
Q 2644 4219 2406 4219 
Q 1781 4219 1451 3797 
Q 1122 3375 1075 2522 
Q 1259 2794 1537 2939 
Q 1816 3084 2150 3084 
Q 2853 3084 3261 2657 
Q 3669 2231 3669 1497 
Q 3669 778 3244 343 
Q 2819 -91 2113 -91 
Q 1303 -91 875 529 
Q 447 1150 447 2328 
Q 447 3434 972 4092 
Q 1497 4750 2381 4750 
Q 2619 4750 2861 4703 
Q 3103 4656 3366 4563 
z
" transform="scale(0.015625)"/>
       </defs>
       <use xlink:href="#DejaVuSans-36"/>
      </g>
     </g>
    </g>
    <g id="ytick_5">
     <g id="line2d_11">
      <g>
       <use xlink:href="#m195e8076c6" x="35.559375" y="57.608506" style="stroke: #000000; stroke-width: 0.8"/>
      </g>
     </g>
     <g id="text_12">
      <!-- 8 -->
      <g transform="translate(22.196875 61.407725) scale(0.1 -0.1)">
       <defs>
        <path id="DejaVuSans-38" d="M 2034 2216 
Q 1584 2216 1326 1975 
Q 1069 1734 1069 1313 
Q 1069 891 1326 650 
Q 1584 409 2034 409 
Q 2484 409 2743 651 
Q 3003 894 3003 1313 
Q 3003 1734 2745 1975 
Q 2488 2216 2034 2216 
z
M 1403 2484 
Q 997 2584 770 2862 
Q 544 3141 544 3541 
Q 544 4100 942 4425 
Q 1341 4750 2034 4750 
Q 2731 4750 3128 4425 
Q 3525 4100 3525 3541 
Q 3525 3141 3298 2862 
Q 3072 2584 2669 2484 
Q 3125 2378 3379 2068 
Q 3634 1759 3634 1313 
Q 3634 634 3220 271 
Q 2806 -91 2034 -91 
Q 1263 -91 848 271 
Q 434 634 434 1313 
Q 434 1759 690 2068 
Q 947 2378 1403 2484 
z
M 1172 3481 
Q 1172 3119 1398 2916 
Q 1625 2713 2034 2713 
Q 2441 2713 2670 2916 
Q 2900 3119 2900 3481 
Q 2900 3844 2670 4047 
Q 2441 4250 2034 4250 
Q 1625 4250 1398 4047 
Q 1172 3844 1172 3481 
z
" transform="scale(0.015625)"/>
       </defs>
       <use xlink:href="#DejaVuSans-38"/>
      </g>
     </g>
    </g>
    <g id="text_13">
     <!-- Latency (ms) -->
     <g transform="translate(16.117188 188.103812) rotate(-90) scale(0.1 -0.1)">
      <defs>
       <path id="DejaVuSans-4c" d="M 628 4666 
L 1259 4666 
L 1259 531 
L 3531 531 
L 3531 0 
L 628 0 
L 628 4666 
z
" transform="scale(0.015625)"/>
       <path id="DejaVuSans-65" d="M 3597 1894 
L 3597 1613 
L 953 1613 
Q 991 1019 1311 708 
Q 1631 397 2203 397 
Q 2534 397 2845 478 
Q 3156 559 3463 722 
L 3463 178 
Q 3153 47 2828 -22 
Q 2503 -91 2169 -91 
Q 1331 -91 842 396 
Q 353 884 353 1716 
Q 353 2575 817 3079 
Q 1281 3584 2069 3584 
Q 2775 3584 3186 3129 
Q 3597 2675 3597 1894 
z
M 3022 2063 
Q 3016 2534 2758 2815 
Q 2500 3097 2075 3097 
Q 1594 3097 1305 2825 
Q 1016 2553 972 2059 
L 3022 2063 
z
" transform="scale(0.015625)"/>
       <path id="DejaVuSans-63" d="M 3122 3366 
L 3122 2828 
Q 2878 2963 2633 3030 
Q 2388 3097 2138 3097 
Q 1578 3097 1268 2742 
Q 959 2388 959 1747 
Q 959 1106 1268 751 
Q 1578 397 2138 397 
Q 2388 397 2633 464 
Q 2878 531 3122 666 
L 3122 134 
Q 2881 22 2623 -34 
Q 2366 -91 2075 -91 
Q 1284 -91 818 406 
Q 353 903 353 1747 
Q 353 2603 823 3093 
Q 1294 3584 2113 3584 
Q 2378 3584 2631 3529 
Q 2884 3475 3122 3366 
z
" transform="scale(0.015625)"/>
       <path id="DejaVuSans-79" d="M 2059 -325 
Q 1816 -950 1584 -1140 
Q 1353 -1331 966 -1331 
L 506 -1331 
L 506 -850 
L 844 -850 
Q 1081 -850 1212 -737 
Q 1344 -625 1503 -206 
L 1606 56 
L 191 3500 
L 800 3500 
L 1894 763 
L 2988 3500 
L 3597 3500 
L 2059 -325 
z
" transform="scale(0.015625)"/>
       <path id="DejaVuSans-6d" d="M 3328 2828 
Q 3544 3216 3844 3400 
Q 4144 3584 4550 3584 
Q 5097 3584 5394 3201 
Q 5691 2819 5691 2113 
L 5691 0 
L 5113 0 
L 5113 2094 
Q 5113 2597 4934 2840 
Q 4756 3084 4391 3084 
Q 3944 3084 3684 2787 
Q 3425 2491 3425 1978 
L 3425 0 
L 2847 0 
L 2847 2094 
Q 2847 2600 2669 2842 
Q 2491 3084 2119 3084 
Q 1678 3084 1418 2786 
Q 1159 2488 1159 1978 
L 1159 0 
L 581 0 
L 581 3500 
L 1159 3500 
L 1159 2956 
Q 1356 3278 1631 3431 
Q 1906 3584 2284 3584 
Q 2666 3584 2933 3390 
Q 3200 3197 3328 2828 
z
" transform="scale(0.015625)"/>
      </defs>
      <use xlink:href="#DejaVuSans-4c"/>
      <use xlink:href="#DejaVuSans-61" x="55.712891"/>
      <use xlink:href="#DejaVuSans-74" x="116.992188"/>
      <use xlink:href="#DejaVuSans-65" x="156.201172"/>
      <use xlink:href="#DejaVuSans-6e" x="217.724609"/>
      <use xlink:href="#DejaVuSans-63" x="281.103516"/>
      <use xlink:href="#DejaVuSans-79" x="336.083984"/>
      <use xlink:href="#DejaVuSans-20" x="395.263672"/>
      <use xlink:href="#DejaVuSans-28" x="427.050781"/>
      <use xlink:href="#DejaVuSans-6d" x="466.064453"/>
      <use xlink:href="#DejaVuSans-73" x="563.476562"/>
      <use xlink:href="#DejaVuSans-29" x="615.576172"/>
     </g>
    </g>
   </g>
   <g id="LineCollection_1">
    <path d="M 62.677492 253.132563 
L 62.677492 253.132563 
" clip-path="url(#pa42bae0567)" style="fill: none; stroke: #e50000; stroke-width: 1.5"/>
    <path d="M 89.579261 252.69908 
L 89.579261 252.69908 
" clip-path="url(#pa42bae0567)" style="fill: none; stroke: #e50000; stroke-width: 1.5"/>
    <path d="M 112.194243 250.894686 
L 112.194243 250.894686 
" clip-path="url(#pa42bae0567)" style="fill: none; stroke: #e50000; stroke-width: 1.5"/>
    <path d="M 136.122617 250.17545 
L 136.122617 250.17545 
" clip-path="url(#pa42bae0567)" style="fill: none; stroke: #e50000; stroke-width: 1.5"/>
    <path d="M 156.979056 248.769745 
L 156.979056 248.769745 
" clip-path="url(#pa42bae0567)" style="fill: none; stroke: #e50000; stroke-width: 1.5"/>
    <path d="M 173.122944 246.225035 
L 173.122944 246.225035 
" clip-path="url(#pa42bae0567)" style="fill: none; stroke: #e50000; stroke-width: 1.5"/>
    <path d="M 201.471004 241.479255 
L 201.471004 241.479255 
" clip-path="url(#pa42bae0567)" style="fill: none; stroke: #e50000; stroke-width: 1.5"/>
    <path d="M 273.116928 221.552445 
L 273.116928 221.552445 
" clip-path="url(#pa42bae0567)" style="fill: none; stroke: #e50000; stroke-width: 1.5"/>
    <path d="M 278.050533 188.968815 
L 278.050533 188.968815 
" clip-path="url(#pa42bae0567)" style="fill: none; stroke: #e50000; stroke-width: 1.5"/>
    <path d="M 263.258496 146.312828 
L 263.258496 146.312828 
" clip-path="url(#pa42bae0567)" style="fill: none; stroke: #e50000; stroke-width: 1.5"/>
    <path d="M 264.27523 75.699749 
L 264.27523 75.699749 
" clip-path="url(#pa42bae0567)" style="fill: none; stroke: #e50000; stroke-width: 1.5"/>
    <path d="M 289.769139 33.309289 
L 289.769139 33.309289 
" clip-path="url(#pa42bae0567)" style="fill: none; stroke: #e50000; stroke-width: 1.5"/>
   </g>
   <g id="LineCollection_2">
    <path d="M 59.799527 248.75513 
L 59.799527 248.75513 
" clip-path="url(#pa42bae0567)" style="fill: none; stroke: #e50000; stroke-width: 1.5"/>
    <path d="M 83.809537 248.419542 
L 83.809537 248.419542 
" clip-path="url(#pa42bae0567)" style="fill: none; stroke: #e50000; stroke-width: 1.5"/>
    <path d="M 107.627043 248.257156 
L 107.627043 248.257156 
" clip-path="url(#pa42bae0567)" style="fill: none; stroke: #e50000; stroke-width: 1.5"/>
    <path d="M 129.843246 247.482379 
L 129.843246 247.482379 
" clip-path="url(#pa42bae0567)" style="fill: none; stroke: #e50000; stroke-width: 1.5"/>
    <path d="M 149.911102 246.149124 
L 149.911102 246.149124 
" clip-path="url(#pa42bae0567)" style="fill: none; stroke: #e50000; stroke-width: 1.5"/>
    <path d="M 167.974698 244.554363 
L 167.974698 244.554363 
" clip-path="url(#pa42bae0567)" style="fill: none; stroke: #e50000; stroke-width: 1.5"/>
    <path d="M 199.91559 241.026966 
L 199.91559 241.026966 
" clip-path="url(#pa42bae0567)" style="fill: none; stroke: #e50000; stroke-width: 1.5"/>
    <path d="M 293.633587 227.002033 
L 293.633587 227.002033 
" clip-path="url(#pa42bae0567)" style="fill: none; stroke: #e50000; stroke-width: 1.5"/>
    <path d="M 320.274356 203.849515 
L 320.274356 203.849515 
" clip-path="url(#pa42bae0567)" style="fill: none; stroke: #e50000; stroke-width: 1.5"/>
    <path d="M 343.312555 183.612966 
L 343.312555 183.612966 
" clip-path="url(#pa42bae0567)" style="fill: none; stroke: #e50000; stroke-width: 1.5"/>
    <path d="M 365.699454 141.724734 
L 365.699454 141.724734 
" clip-path="url(#pa42bae0567)" style="fill: none; stroke: #e50000; stroke-width: 1.5"/>
    <path d="M 376.827954 99.30128 
L 376.827954 99.30128 
" clip-path="url(#pa42bae0567)" style="fill: none; stroke: #e50000; stroke-width: 1.5"/>
   </g>
   <g id="LineCollection_3">
    <path d="M 62.301542 252.753233 
L 62.301542 252.753233 
" clip-path="url(#pa42bae0567)" style="fill: none; stroke: #e50000; stroke-width: 1.5"/>
    <path d="M 88.008661 251.877224 
L 88.008661 251.877224 
" clip-path="url(#pa42bae0567)" style="fill: none; stroke: #e50000; stroke-width: 1.5"/>
    <path d="M 112.497487 250.918885 
L 112.497487 250.918885 
" clip-path="url(#pa42bae0567)" style="fill: none; stroke: #e50000; stroke-width: 1.5"/>
    <path d="M 134.370025 249.483363 
L 134.370025 249.483363 
" clip-path="url(#pa42bae0567)" style="fill: none; stroke: #e50000; stroke-width: 1.5"/>
    <path d="M 156.454974 248.420253 
L 156.454974 248.420253 
" clip-path="url(#pa42bae0567)" style="fill: none; stroke: #e50000; stroke-width: 1.5"/>
    <path d="M 170.8594 245.471316 
L 170.8594 245.471316 
" clip-path="url(#pa42bae0567)" style="fill: none; stroke: #e50000; stroke-width: 1.5"/>
    <path d="M 197.472687 240.264417 
L 197.472687 240.264417 
" clip-path="url(#pa42bae0567)" style="fill: none; stroke: #e50000; stroke-width: 1.5"/>
    <path d="M 267.142499 219.769594 
L 267.142499 219.769594 
" clip-path="url(#pa42bae0567)" style="fill: none; stroke: #e50000; stroke-width: 1.5"/>
    <path d="M 285.263404 191.895844 
L 285.263404 191.895844 
" clip-path="url(#pa42bae0567)" style="fill: none; stroke: #e50000; stroke-width: 1.5"/>
    <path d="M 266.921869 148.591571 
L 266.921869 148.591571 
" clip-path="url(#pa42bae0567)" style="fill: none; stroke: #e50000; stroke-width: 1.5"/>
    <path d="M 279.362987 88.985022 
L 279.362987 88.985022 
" clip-path="url(#pa42bae0567)" style="fill: none; stroke: #e50000; stroke-width: 1.5"/>
    <path d="M 292.772037 36.330214 
L 292.772037 36.330214 
" clip-path="url(#pa42bae0567)" style="fill: none; stroke: #e50000; stroke-width: 1.5"/>
   </g>
   <g id="LineCollection_4">
    <path d="M 59.81726 248.766211 
L 59.81726 248.766211 
" clip-path="url(#pa42bae0567)" style="fill: none; stroke: #e50000; stroke-width: 1.5"/>
    <path d="M 83.496861 248.353285 
L 83.496861 248.353285 
" clip-path="url(#pa42bae0567)" style="fill: none; stroke: #e50000; stroke-width: 1.5"/>
    <path d="M 106.708879 247.811019 
L 106.708879 247.811019 
" clip-path="url(#pa42bae0567)" style="fill: none; stroke: #e50000; stroke-width: 1.5"/>
    <path d="M 130.254671 247.614467 
L 130.254671 247.614467 
" clip-path="url(#pa42bae0567)" style="fill: none; stroke: #e50000; stroke-width: 1.5"/>
    <path d="M 149.279405 245.917872 
L 149.279405 245.917872 
" clip-path="url(#pa42bae0567)" style="fill: none; stroke: #e50000; stroke-width: 1.5"/>
    <path d="M 167.33511 244.285992 
L 167.33511 244.285992 
" clip-path="url(#pa42bae0567)" style="fill: none; stroke: #e50000; stroke-width: 1.5"/>
    <path d="M 198.580605 240.579154 
L 198.580605 240.579154 
" clip-path="url(#pa42bae0567)" style="fill: none; stroke: #e50000; stroke-width: 1.5"/>
    <path d="M 292.113034 226.642313 
L 292.113034 226.642313 
" clip-path="url(#pa42bae0567)" style="fill: none; stroke: #e50000; stroke-width: 1.5"/>
    <path d="M 326.580085 205.727218 
L 326.580085 205.727218 
" clip-path="url(#pa42bae0567)" style="fill: none; stroke: #e50000; stroke-width: 1.5"/>
    <path d="M 342.470627 183.334392 
L 342.470627 183.334392 
" clip-path="url(#pa42bae0567)" style="fill: none; stroke: #e50000; stroke-width: 1.5"/>
    <path d="M 360.762687 139.314076 
L 360.762687 139.314076 
" clip-path="url(#pa42bae0567)" style="fill: none; stroke: #e50000; stroke-width: 1.5"/>
    <path d="M 367.652787 93.530422 
L 367.652787 93.530422 
" clip-path="url(#pa42bae0567)" style="fill: none; stroke: #e50000; stroke-width: 1.5"/>
   </g>
   <g id="line2d_12">
    <path d="M 62.677492 253.132563 
L 89.579261 252.69908 
L 112.194243 250.894686 
L 136.122617 250.17545 
L 156.979056 248.769745 
L 173.122944 246.225035 
L 201.471004 241.479255 
L 273.116928 221.552445 
L 278.050533 188.968815 
L 263.258496 146.312828 
L 264.27523 75.699749 
L 289.769139 33.309289 
" clip-path="url(#pa42bae0567)" style="fill: none; stroke: #0485d1; stroke-width: 1.5; stroke-linecap: square"/>
    <defs>
     <path id="med22969550" d="M -3 0 
L 3 0 
M 0 3 
L 0 -3 
" style="stroke: #0485d1"/>
    </defs>
    <g clip-path="url(#pa42bae0567)">
     <use xlink:href="#med22969550" x="62.677492" y="253.132563" style="fill: #0485d1; stroke: #0485d1"/>
     <use xlink:href="#med22969550" x="89.579261" y="252.69908" style="fill: #0485d1; stroke: #0485d1"/>
     <use xlink:href="#med22969550" x="112.194243" y="250.894686" style="fill: #0485d1; stroke: #0485d1"/>
     <use xlink:href="#med22969550" x="136.122617" y="250.17545" style="fill: #0485d1; stroke: #0485d1"/>
     <use xlink:href="#med22969550" x="156.979056" y="248.769745" style="fill: #0485d1; stroke: #0485d1"/>
     <use xlink:href="#med22969550" x="173.122944" y="246.225035" style="fill: #0485d1; stroke: #0485d1"/>
     <use xlink:href="#med22969550" x="201.471004" y="241.479255" style="fill: #0485d1; stroke: #0485d1"/>
     <use xlink:href="#med22969550" x="273.116928" y="221.552445" style="fill: #0485d1; stroke: #0485d1"/>
     <use xlink:href="#med22969550" x="278.050533" y="188.968815" style="fill: #0485d1; stroke: #0485d1"/>
     <use xlink:href="#med22969550" x="263.258496" y="146.312828" style="fill: #0485d1; stroke: #0485d1"/>
     <use xlink:href="#med22969550" x="264.27523" y="75.699749" style="fill: #0485d1; stroke: #0485d1"/>
     <use xlink:href="#med22969550" x="289.769139" y="33.309289" style="fill: #0485d1; stroke: #0485d1"/>
    </g>
   </g>
   <g id="line2d_13">
    <path d="M 59.799527 248.75513 
L 83.809537 248.419542 
L 107.627043 248.257156 
L 129.843246 247.482379 
L 149.911102 246.149124 
L 167.974698 244.554363 
L 199.91559 241.026966 
L 293.633587 227.002033 
L 320.274356 203.849515 
L 343.312555 183.612966 
L 365.699454 141.724734 
L 376.827954 99.30128 
" clip-path="url(#pa42bae0567)" style="fill: none; stroke: #8c000f; stroke-width: 1.5; stroke-linecap: square"/>
    <defs>
     <path id="m73ee066bf3" d="M -3 0 
L 3 0 
M 0 3 
L 0 -3 
" style="stroke: #8c000f"/>
    </defs>
    <g clip-path="url(#pa42bae0567)">
     <use xlink:href="#m73ee066bf3" x="59.799527" y="248.75513" style="fill: #8c000f; stroke: #8c000f"/>
     <use xlink:href="#m73ee066bf3" x="83.809537" y="248.419542" style="fill: #8c000f; stroke: #8c000f"/>
     <use xlink:href="#m73ee066bf3" x="107.627043" y="248.257156" style="fill: #8c000f; stroke: #8c000f"/>
     <use xlink:href="#m73ee066bf3" x="129.843246" y="247.482379" style="fill: #8c000f; stroke: #8c000f"/>
     <use xlink:href="#m73ee066bf3" x="149.911102" y="246.149124" style="fill: #8c000f; stroke: #8c000f"/>
     <use xlink:href="#m73ee066bf3" x="167.974698" y="244.554363" style="fill: #8c000f; stroke: #8c000f"/>
     <use xlink:href="#m73ee066bf3" x="199.91559" y="241.026966" style="fill: #8c000f; stroke: #8c000f"/>
     <use xlink:href="#m73ee066bf3" x="293.633587" y="227.002033" style="fill: #8c000f; stroke: #8c000f"/>
     <use xlink:href="#m73ee066bf3" x="320.274356" y="203.849515" style="fill: #8c000f; stroke: #8c000f"/>
     <use xlink:href="#m73ee066bf3" x="343.312555" y="183.612966" style="fill: #8c000f; stroke: #8c000f"/>
     <use xlink:href="#m73ee066bf3" x="365.699454" y="141.724734" style="fill: #8c000f; stroke: #8c000f"/>
     <use xlink:href="#m73ee066bf3" x="376.827954" y="99.30128" style="fill: #8c000f; stroke: #8c000f"/>
    </g>
   </g>
   <g id="line2d_14">
    <path d="M 62.301542 252.753233 
L 88.008661 251.877224 
L 112.497487 250.918885 
L 134.370025 249.483363 
L 156.454974 248.420253 
L 170.8594 245.471316 
L 197.472687 240.264417 
L 267.142499 219.769594 
L 285.263404 191.895844 
L 266.921869 148.591571 
L 279.362987 88.985022 
L 292.772037 36.330214 
" clip-path="url(#pa42bae0567)" style="fill: none; stroke: #02ab2e; stroke-width: 1.5; stroke-linecap: square"/>
    <defs>
     <path id="mb53d47dfc8" d="M -3 0 
L 3 0 
M 0 3 
L 0 -3 
" style="stroke: #02ab2e"/>
    </defs>
    <g clip-path="url(#pa42bae0567)">
     <use xlink:href="#mb53d47dfc8" x="62.301542" y="252.753233" style="fill: #02ab2e; stroke: #02ab2e"/>
     <use xlink:href="#mb53d47dfc8" x="88.008661" y="251.877224" style="fill: #02ab2e; stroke: #02ab2e"/>
     <use xlink:href="#mb53d47dfc8" x="112.497487" y="250.918885" style="fill: #02ab2e; stroke: #02ab2e"/>
     <use xlink:href="#mb53d47dfc8" x="134.370025" y="249.483363" style="fill: #02ab2e; stroke: #02ab2e"/>
     <use xlink:href="#mb53d47dfc8" x="156.454974" y="248.420253" style="fill: #02ab2e; stroke: #02ab2e"/>
     <use xlink:href="#mb53d47dfc8" x="170.8594" y="245.471316" style="fill: #02ab2e; stroke: #02ab2e"/>
     <use xlink:href="#mb53d47dfc8" x="197.472687" y="240.264417" style="fill: #02ab2e; stroke: #02ab2e"/>
     <use xlink:href="#mb53d47dfc8" x="267.142499" y="219.769594" style="fill: #02ab2e; stroke: #02ab2e"/>
     <use xlink:href="#mb53d47dfc8" x="285.263404" y="191.895844" style="fill: #02ab2e; stroke: #02ab2e"/>
     <use xlink:href="#mb53d47dfc8" x="266.921869" y="148.591571" style="fill: #02ab2e; stroke: #02ab2e"/>
     <use xlink:href="#mb53d47dfc8" x="279.362987" y="88.985022" style="fill: #02ab2e; stroke: #02ab2e"/>
     <use xlink:href="#mb53d47dfc8" x="292.772037" y="36.330214" style="fill: #02ab2e; stroke: #02ab2e"/>
    </g>
   </g>
   <g id="line2d_15">
    <path d="M 59.81726 248.766211 
L 83.496861 248.353285 
L 106.708879 247.811019 
L 130.254671 247.614467 
L 149.279405 245.917872 
L 167.33511 244.285992 
L 198.580605 240.579154 
L 292.113034 226.642313 
L 326.580085 205.727218 
L 342.470627 183.334392 
L 360.762687 139.314076 
L 367.652787 93.530422 
" clip-path="url(#pa42bae0567)" style="fill: none; stroke: #ff9408; stroke-width: 1.5; stroke-linecap: square"/>
    <defs>
     <path id="m97bf53c1c4" d="M -3 0 
L 3 0 
M 0 3 
L 0 -3 
" style="stroke: #ff9408"/>
    </defs>
    <g clip-path="url(#pa42bae0567)">
     <use xlink:href="#m97bf53c1c4" x="59.81726" y="248.766211" style="fill: #ff9408; stroke: #ff9408"/>
     <use xlink:href="#m97bf53c1c4" x="83.496861" y="248.353285" style="fill: #ff9408; stroke: #ff9408"/>
     <use xlink:href="#m97bf53c1c4" x="106.708879" y="247.811019" style="fill: #ff9408; stroke: #ff9408"/>
     <use xlink:href="#m97bf53c1c4" x="130.254671" y="247.614467" style="fill: #ff9408; stroke: #ff9408"/>
     <use xlink:href="#m97bf53c1c4" x="149.279405" y="245.917872" style="fill: #ff9408; stroke: #ff9408"/>
     <use xlink:href="#m97bf53c1c4" x="167.33511" y="244.285992" style="fill: #ff9408; stroke: #ff9408"/>
     <use xlink:href="#m97bf53c1c4" x="198.580605" y="240.579154" style="fill: #ff9408; stroke: #ff9408"/>
     <use xlink:href="#m97bf53c1c4" x="292.113034" y="226.642313" style="fill: #ff9408; stroke: #ff9408"/>
     <use xlink:href="#m97bf53c1c4" x="326.580085" y="205.727218" style="fill: #ff9408; stroke: #ff9408"/>
     <use xlink:href="#m97bf53c1c4" x="342.470627" y="183.334392" style="fill: #ff9408; stroke: #ff9408"/>
     <use xlink:href="#m97bf53c1c4" x="360.762687" y="139.314076" style="fill: #ff9408; stroke: #ff9408"/>
     <use xlink:href="#m97bf53c1c4" x="367.652787" y="93.530422" style="fill: #ff9408; stroke: #ff9408"/>
    </g>
   </g>
   <g id="patch_3">
    <path d="M 35.559375 288.430125 
L 35.559375 22.318125 
" style="fill: none; stroke: #000000; stroke-width: 0.8; stroke-linejoin: miter; stroke-linecap: square"/>
   </g>
   <g id="patch_4">
    <path d="M 392.679375 288.430125 
L 392.679375 22.318125 
" style="fill: none; stroke: #000000; stroke-width: 0.8; stroke-linejoin: miter; stroke-linecap: square"/>
   </g>
   <g id="patch_5">
    <path d="M 35.559375 288.430125 
L 392.679375 288.430125 
" style="fill: none; stroke: #000000; stroke-width: 0.8; stroke-linejoin: miter; stroke-linecap: square"/>
   </g>
   <g id="patch_6">
    <path d="M 35.559375 22.318125 
L 392.679375 22.318125 
" style="fill: none; stroke: #000000; stroke-width: 0.8; stroke-linejoin: miter; stroke-linecap: square"/>
   </g>
   <g id="text_14">
    <!-- 512K  Random Write -->
    <g transform="translate(152.333438 16.318125) scale(0.12 -0.12)">
     <defs>
      <path id="DejaVuSans-4b" d="M 628 4666 
L 1259 4666 
L 1259 2694 
L 3353 4666 
L 4166 4666 
L 1850 2491 
L 4331 0 
L 3500 0 
L 1259 2247 
L 1259 0 
L 628 0 
L 628 4666 
z
" transform="scale(0.015625)"/>
      <path id="DejaVuSans-52" d="M 2841 2188 
Q 3044 2119 3236 1894 
Q 3428 1669 3622 1275 
L 4263 0 
L 3584 0 
L 2988 1197 
Q 2756 1666 2539 1819 
Q 2322 1972 1947 1972 
L 1259 1972 
L 1259 0 
L 628 0 
L 628 4666 
L 2053 4666 
Q 2853 4666 3247 4331 
Q 3641 3997 3641 3322 
Q 3641 2881 3436 2590 
Q 3231 2300 2841 2188 
z
M 1259 4147 
L 1259 2491 
L 2053 2491 
Q 2509 2491 2742 2702 
Q 2975 2913 2975 3322 
Q 2975 3731 2742 3939 
Q 2509 4147 2053 4147 
L 1259 4147 
z
" transform="scale(0.015625)"/>
      <path id="DejaVuSans-6f" d="M 1959 3097 
Q 1497 3097 1228 2736 
Q 959 2375 959 1747 
Q 959 1119 1226 758 
Q 1494 397 1959 397 
Q 2419 397 2687 759 
Q 2956 1122 2956 1747 
Q 2956 2369 2687 2733 
Q 2419 3097 1959 3097 
z
M 1959 3584 
Q 2709 3584 3137 3096 
Q 3566 2609 3566 1747 
Q 3566 888 3137 398 
Q 2709 -91 1959 -91 
Q 1206 -91 779 398 
Q 353 888 353 1747 
Q 353 2609 779 3096 
Q 1206 3584 1959 3584 
z
" transform="scale(0.015625)"/>
      <path id="DejaVuSans-57" d="M 213 4666 
L 850 4666 
L 1831 722 
L 2809 4666 
L 3519 4666 
L 4500 722 
L 5478 4666 
L 6119 4666 
L 4947 0 
L 4153 0 
L 3169 4050 
L 2175 0 
L 1381 0 
L 213 4666 
z
" transform="scale(0.015625)"/>
      <path id="DejaVuSans-72" d="M 2631 2963 
Q 2534 3019 2420 3045 
Q 2306 3072 2169 3072 
Q 1681 3072 1420 2755 
Q 1159 2438 1159 1844 
L 1159 0 
L 581 0 
L 581 3500 
L 1159 3500 
L 1159 2956 
Q 1341 3275 1631 3429 
Q 1922 3584 2338 3584 
Q 2397 3584 2469 3576 
Q 2541 3569 2628 3553 
L 2631 2963 
z
" transform="scale(0.015625)"/>
     </defs>
     <use xlink:href="#DejaVuSans-35"/>
     <use xlink:href="#DejaVuSans-31" x="63.623047"/>
     <use xlink:href="#DejaVuSans-32" x="127.246094"/>
     <use xlink:href="#DejaVuSans-4b" x="190.869141"/>
     <use xlink:href="#DejaVuSans-20" x="256.445312"/>
     <use xlink:href="#DejaVuSans-20" x="288.232422"/>
     <use xlink:href="#DejaVuSans-52" x="320.019531"/>
     <use xlink:href="#DejaVuSans-61" x="387.251953"/>
     <use xlink:href="#DejaVuSans-6e" x="448.53125"/>
     <use xlink:href="#DejaVuSans-64" x="511.910156"/>
     <use xlink:href="#DejaVuSans-6f" x="575.386719"/>
     <use xlink:href="#DejaVuSans-6d" x="636.568359"/>
     <use xlink:href="#DejaVuSans-20" x="733.980469"/>
     <use xlink:href="#DejaVuSans-57" x="765.767578"/>
     <use xlink:href="#DejaVuSans-72" x="860.144531"/>
     <use xlink:href="#DejaVuSans-69" x="901.257812"/>
     <use xlink:href="#DejaVuSans-74" x="929.041016"/>
     <use xlink:href="#DejaVuSans-65" x="968.25"/>
    </g>
   </g>
  </g>
  <g id="legend_1">
   <g id="patch_7">
    <path d="M 9.2 398.362375 
L 407.51875 398.362375 
Q 409.51875 398.362375 409.51875 396.362375 
L 409.51875 368.006125 
Q 409.51875 366.006125 407.51875 366.006125 
L 9.2 366.006125 
Q 7.2 366.006125 7.2 368.006125 
L 7.2 396.362375 
Q 7.2 398.362375 9.2 398.362375 
z
" style="fill: #ffffff; opacity: 0.8; stroke: #cccccc; stroke-linejoin: miter"/>
   </g>
   <g id="LineCollection_5">
    <path d="M 21.2 379.104562 
L 21.2 369.104562 
" style="fill: none; stroke: #e50000; stroke-width: 1.5"/>
   </g>
   <g id="line2d_16">
    <path d="M 11.2 374.104562 
L 31.2 374.104562 
" style="fill: none; stroke: #0485d1; stroke-width: 1.5; stroke-linecap: square"/>
   </g>
   <g id="line2d_17">
    <g>
     <use xlink:href="#med22969550" x="21.2" y="374.104562" style="fill: #0485d1; stroke: #0485d1"/>
    </g>
   </g>
   <g id="text_15">
    <!-- main-ec-16K-soko07-2+1-3osd -->
    <g transform="translate(39.2 377.604562) scale(0.1 -0.1)">
     <defs>
      <path id="DejaVuSans-2d" d="M 313 2009 
L 1997 2009 
L 1997 1497 
L 313 1497 
L 313 2009 
z
" transform="scale(0.015625)"/>
      <path id="DejaVuSans-6b" d="M 581 4863 
L 1159 4863 
L 1159 1991 
L 2875 3500 
L 3609 3500 
L 1753 1863 
L 3688 0 
L 2938 0 
L 1159 1709 
L 1159 0 
L 581 0 
L 581 4863 
z
" transform="scale(0.015625)"/>
      <path id="DejaVuSans-37" d="M 525 4666 
L 3525 4666 
L 3525 4397 
L 1831 0 
L 1172 0 
L 2766 4134 
L 525 4134 
L 525 4666 
z
" transform="scale(0.015625)"/>
      <path id="DejaVuSans-2b" d="M 2944 4013 
L 2944 2272 
L 4684 2272 
L 4684 1741 
L 2944 1741 
L 2944 0 
L 2419 0 
L 2419 1741 
L 678 1741 
L 678 2272 
L 2419 2272 
L 2419 4013 
L 2944 4013 
z
" transform="scale(0.015625)"/>
     </defs>
     <use xlink:href="#DejaVuSans-6d"/>
     <use xlink:href="#DejaVuSans-61" x="97.412109"/>
     <use xlink:href="#DejaVuSans-69" x="158.691406"/>
     <use xlink:href="#DejaVuSans-6e" x="186.474609"/>
     <use xlink:href="#DejaVuSans-2d" x="249.853516"/>
     <use xlink:href="#DejaVuSans-65" x="285.9375"/>
     <use xlink:href="#DejaVuSans-63" x="347.460938"/>
     <use xlink:href="#DejaVuSans-2d" x="402.441406"/>
     <use xlink:href="#DejaVuSans-31" x="438.525391"/>
     <use xlink:href="#DejaVuSans-36" x="502.148438"/>
     <use xlink:href="#DejaVuSans-4b" x="565.771484"/>
     <use xlink:href="#DejaVuSans-2d" x="620.847656"/>
     <use xlink:href="#DejaVuSans-73" x="656.931641"/>
     <use xlink:href="#DejaVuSans-6f" x="709.03125"/>
     <use xlink:href="#DejaVuSans-6b" x="770.212891"/>
     <use xlink:href="#DejaVuSans-6f" x="824.498047"/>
     <use xlink:href="#DejaVuSans-30" x="885.679688"/>
     <use xlink:href="#DejaVuSans-37" x="949.302734"/>
     <use xlink:href="#DejaVuSans-2d" x="1012.925781"/>
     <use xlink:href="#DejaVuSans-32" x="1049.009766"/>
     <use xlink:href="#DejaVuSans-2b" x="1112.632812"/>
     <use xlink:href="#DejaVuSans-31" x="1196.421875"/>
     <use xlink:href="#DejaVuSans-2d" x="1260.044922"/>
     <use xlink:href="#DejaVuSans-33" x="1296.128906"/>
     <use xlink:href="#DejaVuSans-6f" x="1359.751953"/>
     <use xlink:href="#DejaVuSans-73" x="1420.933594"/>
     <use xlink:href="#DejaVuSans-64" x="1473.033203"/>
    </g>
   </g>
   <g id="LineCollection_6">
    <path d="M 21.2 393.782687 
L 21.2 383.782687 
" style="fill: none; stroke: #e50000; stroke-width: 1.5"/>
   </g>
   <g id="line2d_18">
    <path d="M 11.2 388.782687 
L 31.2 388.782687 
" style="fill: none; stroke: #8c000f; stroke-width: 1.5; stroke-linecap: square"/>
   </g>
   <g id="line2d_19">
    <g>
     <use xlink:href="#m73ee066bf3" x="21.2" y="388.782687" style="fill: #8c000f; stroke: #8c000f"/>
    </g>
   </g>
   <g id="text_16">
    <!-- main-ec-16K-soko07-2+1-6osd -->
    <g transform="translate(39.2 392.282687) scale(0.1 -0.1)">
     <use xlink:href="#DejaVuSans-6d"/>
     <use xlink:href="#DejaVuSans-61" x="97.412109"/>
     <use xlink:href="#DejaVuSans-69" x="158.691406"/>
     <use xlink:href="#DejaVuSans-6e" x="186.474609"/>
     <use xlink:href="#DejaVuSans-2d" x="249.853516"/>
     <use xlink:href="#DejaVuSans-65" x="285.9375"/>
     <use xlink:href="#DejaVuSans-63" x="347.460938"/>
     <use xlink:href="#DejaVuSans-2d" x="402.441406"/>
     <use xlink:href="#DejaVuSans-31" x="438.525391"/>
     <use xlink:href="#DejaVuSans-36" x="502.148438"/>
     <use xlink:href="#DejaVuSans-4b" x="565.771484"/>
     <use xlink:href="#DejaVuSans-2d" x="620.847656"/>
     <use xlink:href="#DejaVuSans-73" x="656.931641"/>
     <use xlink:href="#DejaVuSans-6f" x="709.03125"/>
     <use xlink:href="#DejaVuSans-6b" x="770.212891"/>
     <use xlink:href="#DejaVuSans-6f" x="824.498047"/>
     <use xlink:href="#DejaVuSans-30" x="885.679688"/>
     <use xlink:href="#DejaVuSans-37" x="949.302734"/>
     <use xlink:href="#DejaVuSans-2d" x="1012.925781"/>
     <use xlink:href="#DejaVuSans-32" x="1049.009766"/>
     <use xlink:href="#DejaVuSans-2b" x="1112.632812"/>
     <use xlink:href="#DejaVuSans-31" x="1196.421875"/>
     <use xlink:href="#DejaVuSans-2d" x="1260.044922"/>
     <use xlink:href="#DejaVuSans-36" x="1296.128906"/>
     <use xlink:href="#DejaVuSans-6f" x="1359.751953"/>
     <use xlink:href="#DejaVuSans-73" x="1420.933594"/>
     <use xlink:href="#DejaVuSans-64" x="1473.033203"/>
    </g>
   </g>
   <g id="LineCollection_7">
    <path d="M 222.851562 379.104562 
L 222.851562 369.104562 
" style="fill: none; stroke: #e50000; stroke-width: 1.5"/>
   </g>
   <g id="line2d_20">
    <path d="M 212.851562 374.104562 
L 232.851562 374.104562 
" style="fill: none; stroke: #02ab2e; stroke-width: 1.5; stroke-linecap: square"/>
   </g>
   <g id="line2d_21">
    <g>
     <use xlink:href="#mb53d47dfc8" x="222.851562" y="374.104562" style="fill: #02ab2e; stroke: #02ab2e"/>
    </g>
   </g>
   <g id="text_17">
    <!-- stretchy-C-16K-soko07-2+1-3osd -->
    <g transform="translate(240.851562 377.604562) scale(0.1 -0.1)">
     <defs>
      <path id="DejaVuSans-43" d="M 4122 4306 
L 4122 3641 
Q 3803 3938 3442 4084 
Q 3081 4231 2675 4231 
Q 1875 4231 1450 3742 
Q 1025 3253 1025 2328 
Q 1025 1406 1450 917 
Q 1875 428 2675 428 
Q 3081 428 3442 575 
Q 3803 722 4122 1019 
L 4122 359 
Q 3791 134 3420 21 
Q 3050 -91 2638 -91 
Q 1578 -91 968 557 
Q 359 1206 359 2328 
Q 359 3453 968 4101 
Q 1578 4750 2638 4750 
Q 3056 4750 3426 4639 
Q 3797 4528 4122 4306 
z
" transform="scale(0.015625)"/>
     </defs>
     <use xlink:href="#DejaVuSans-73"/>
     <use xlink:href="#DejaVuSans-74" x="52.099609"/>
     <use xlink:href="#DejaVuSans-72" x="91.308594"/>
     <use xlink:href="#DejaVuSans-65" x="130.171875"/>
     <use xlink:href="#DejaVuSans-74" x="191.695312"/>
     <use xlink:href="#DejaVuSans-63" x="230.904297"/>
     <use xlink:href="#DejaVuSans-68" x="285.884766"/>
     <use xlink:href="#DejaVuSans-79" x="349.263672"/>
     <use xlink:href="#DejaVuSans-2d" x="406.693359"/>
     <use xlink:href="#DejaVuSans-43" x="442.777344"/>
     <use xlink:href="#DejaVuSans-2d" x="512.601562"/>
     <use xlink:href="#DejaVuSans-31" x="548.685547"/>
     <use xlink:href="#DejaVuSans-36" x="612.308594"/>
     <use xlink:href="#DejaVuSans-4b" x="675.931641"/>
     <use xlink:href="#DejaVuSans-2d" x="731.007812"/>
     <use xlink:href="#DejaVuSans-73" x="767.091797"/>
     <use xlink:href="#DejaVuSans-6f" x="819.191406"/>
     <use xlink:href="#DejaVuSans-6b" x="880.373047"/>
     <use xlink:href="#DejaVuSans-6f" x="934.658203"/>
     <use xlink:href="#DejaVuSans-30" x="995.839844"/>
     <use xlink:href="#DejaVuSans-37" x="1059.462891"/>
     <use xlink:href="#DejaVuSans-2d" x="1123.085938"/>
     <use xlink:href="#DejaVuSans-32" x="1159.169922"/>
     <use xlink:href="#DejaVuSans-2b" x="1222.792969"/>
     <use xlink:href="#DejaVuSans-31" x="1306.582031"/>
     <use xlink:href="#DejaVuSans-2d" x="1370.205078"/>
     <use xlink:href="#DejaVuSans-33" x="1406.289062"/>
     <use xlink:href="#DejaVuSans-6f" x="1469.912109"/>
     <use xlink:href="#DejaVuSans-73" x="1531.09375"/>
     <use xlink:href="#DejaVuSans-64" x="1583.193359"/>
    </g>
   </g>
   <g id="LineCollection_8">
    <path d="M 222.851562 393.782687 
L 222.851562 383.782687 
" style="fill: none; stroke: #e50000; stroke-width: 1.5"/>
   </g>
   <g id="line2d_22">
    <path d="M 212.851562 388.782687 
L 232.851562 388.782687 
" style="fill: none; stroke: #ff9408; stroke-width: 1.5; stroke-linecap: square"/>
   </g>
   <g id="line2d_23">
    <g>
     <use xlink:href="#m97bf53c1c4" x="222.851562" y="388.782687" style="fill: #ff9408; stroke: #ff9408"/>
    </g>
   </g>
   <g id="text_18">
    <!-- stretchy-C-16K-soko07-2+1-6osd -->
    <g transform="translate(240.851562 392.282687) scale(0.1 -0.1)">
     <use xlink:href="#DejaVuSans-73"/>
     <use xlink:href="#DejaVuSans-74" x="52.099609"/>
     <use xlink:href="#DejaVuSans-72" x="91.308594"/>
     <use xlink:href="#DejaVuSans-65" x="130.171875"/>
     <use xlink:href="#DejaVuSans-74" x="191.695312"/>
     <use xlink:href="#DejaVuSans-63" x="230.904297"/>
     <use xlink:href="#DejaVuSans-68" x="285.884766"/>
     <use xlink:href="#DejaVuSans-79" x="349.263672"/>
     <use xlink:href="#DejaVuSans-2d" x="406.693359"/>
     <use xlink:href="#DejaVuSans-43" x="442.777344"/>
     <use xlink:href="#DejaVuSans-2d" x="512.601562"/>
     <use xlink:href="#DejaVuSans-31" x="548.685547"/>
     <use xlink:href="#DejaVuSans-36" x="612.308594"/>
     <use xlink:href="#DejaVuSans-4b" x="675.931641"/>
     <use xlink:href="#DejaVuSans-2d" x="731.007812"/>
     <use xlink:href="#DejaVuSans-73" x="767.091797"/>
     <use xlink:href="#DejaVuSans-6f" x="819.191406"/>
     <use xlink:href="#DejaVuSans-6b" x="880.373047"/>
     <use xlink:href="#DejaVuSans-6f" x="934.658203"/>
     <use xlink:href="#DejaVuSans-30" x="995.839844"/>
     <use xlink:href="#DejaVuSans-37" x="1059.462891"/>
     <use xlink:href="#DejaVuSans-2d" x="1123.085938"/>
     <use xlink:href="#DejaVuSans-32" x="1159.169922"/>
     <use xlink:href="#DejaVuSans-2b" x="1222.792969"/>
     <use xlink:href="#DejaVuSans-31" x="1306.582031"/>
     <use xlink:href="#DejaVuSans-2d" x="1370.205078"/>
     <use xlink:href="#DejaVuSans-36" x="1406.289062"/>
     <use xlink:href="#DejaVuSans-6f" x="1469.912109"/>
     <use xlink:href="#DejaVuSans-73" x="1531.09375"/>
     <use xlink:href="#DejaVuSans-64" x="1583.193359"/>
    </g>
   </g>
  </g>
 </g>
 <defs>
  <clipPath id="pa42bae0567">
   <rect x="35.559375" y="22.318125" width="357.12" height="266.112"/>
  </clipPath>
 </defs>
</svg>
